<svg width="2476" height="674" viewBox="0 0 2476 674" fill="none" xmlns="http://www.w3.org/2000/svg">
<path d="M793.5 245.5C793.5 218.167 790 198.5 783 186.5C776.333 174.167 763.667 168 745 168C738.333 168 731 168.5 723 169.5C715 170.5 709 171.333 705 172V383H644.5V130C656.167 126.667 671.333 123.5 690 120.5C709 117.5 729 116 750 116C768 116 782.667 118.333 794 123C805.667 127.667 815.333 133.833 823 141.5C826.667 138.833 831.333 136 837 133C842.667 130 849 127.333 856 125C863 122.333 870.333 120.167 878 118.5C886 116.833 894 116 902 116C922.333 116 939 119 952 125C965.333 130.667 975.667 138.833 983 149.5C990.667 159.833 995.833 172.5 998.5 187.5C1001.5 202.167 1003 218.333 1003 236V383H942.5V245.5C942.5 218.167 939.167 198.5 932.5 186.5C925.833 174.167 913 168 894 168C884.333 168 875.167 169.667 866.5 173C857.833 176 851.333 179 847 182C849.667 190.333 851.5 199.167 852.5 208.5C853.5 217.833 854 227.833 854 238.5V383H793.5V245.5ZM1052.62 252.5C1052.62 233.167 1055.62 215.167 1061.62 198.5C1067.62 181.5 1076.12 166.833 1087.12 154.5C1098.45 142.167 1112.12 132.5 1128.12 125.5C1144.12 118.5 1162.12 115 1182.12 115C1206.78 115 1230.12 119.5 1252.12 128.5L1239.12 178C1232.12 175 1224.12 172.5 1215.12 170.5C1206.45 168.5 1197.12 167.5 1187.12 167.5C1163.45 167.5 1145.45 175 1133.12 190C1120.78 204.667 1114.62 225.5 1114.62 252.5C1114.62 278.5 1120.45 299.167 1132.12 314.5C1143.78 329.5 1163.45 337 1191.12 337C1201.45 337 1211.62 336 1221.62 334C1231.62 332 1240.28 329.5 1247.62 326.5L1256.12 376.5C1249.45 379.833 1239.28 382.833 1225.62 385.5C1212.28 388.167 1198.45 389.5 1184.12 389.5C1161.78 389.5 1142.28 386.167 1125.62 379.5C1109.28 372.5 1095.62 363 1084.62 351C1073.95 338.667 1065.95 324.167 1060.62 307.5C1055.28 290.5 1052.62 272.167 1052.62 252.5ZM1466.46 253.5C1466.46 226.5 1460.29 205.5 1447.96 190.5C1435.96 175.5 1416.46 168 1389.46 168C1383.79 168 1377.79 168.333 1371.46 169C1365.46 169.333 1359.46 170.333 1353.46 172V321.5C1358.79 325.167 1365.79 328.667 1374.46 332C1383.46 335 1392.96 336.5 1402.96 336.5C1424.96 336.5 1440.96 329 1450.96 314C1461.29 299 1466.46 278.833 1466.46 253.5ZM1528.46 252.5C1528.46 272.5 1525.79 290.833 1520.46 307.5C1515.46 324.167 1508.12 338.5 1498.46 350.5C1488.79 362.5 1476.62 371.833 1461.96 378.5C1447.62 385.167 1431.29 388.5 1412.96 388.5C1400.62 388.5 1389.29 387 1378.96 384C1368.62 381 1360.12 377.667 1353.46 374V475.5H1292.96V130C1305.29 126.667 1320.46 123.5 1338.46 120.5C1356.46 117.5 1375.46 116 1395.46 116C1416.12 116 1434.62 119.167 1450.96 125.5C1467.29 131.833 1481.12 141 1492.46 153C1504.12 164.667 1512.96 179 1518.96 196C1525.29 212.667 1528.46 231.5 1528.46 252.5ZM1553.81 212.5H1688.31V268H1553.81V212.5ZM1943.02 375C1931.36 378 1916.19 381 1897.52 384C1878.86 387.333 1858.36 389 1836.02 389C1815.02 389 1797.36 386 1783.02 380C1769.02 374 1757.69 365.667 1749.02 355C1740.69 344.333 1734.69 331.667 1731.02 317C1727.36 302 1725.52 285.667 1725.52 268V121.5H1786.02V258.5C1786.02 286.5 1790.02 306.5 1798.02 318.5C1806.36 330.5 1820.69 336.5 1841.02 336.5C1848.36 336.5 1856.02 336.167 1864.02 335.5C1872.36 334.833 1878.52 334 1882.52 333V121.5H1943.02V375ZM2075.53 339.5C2091.53 339.5 2103.19 337.667 2110.53 334C2117.86 330 2121.53 323.333 2121.53 314C2121.53 305.333 2117.53 298.167 2109.53 292.5C2101.86 286.833 2089.03 280.667 2071.03 274C2060.03 270 2049.86 265.833 2040.53 261.5C2031.53 256.833 2023.69 251.5 2017.03 245.5C2010.36 239.5 2005.03 232.333 2001.03 224C1997.36 215.333 1995.53 204.833 1995.53 192.5C1995.53 168.5 2004.36 149.667 2022.03 136C2039.69 122 2063.69 115 2094.03 115C2109.36 115 2124.03 116.5 2138.03 119.5C2152.03 122.167 2162.53 124.833 2169.53 127.5L2158.53 176.5C2151.86 173.5 2143.36 170.833 2133.03 168.5C2122.69 165.833 2110.69 164.5 2097.03 164.5C2084.69 164.5 2074.69 166.667 2067.03 171C2059.36 175 2055.53 181.333 2055.53 190C2055.53 194.333 2056.19 198.167 2057.53 201.5C2059.19 204.833 2061.86 208 2065.53 211C2069.19 213.667 2074.03 216.5 2080.03 219.5C2086.03 222.167 2093.36 225 2102.03 228C2116.36 233.333 2128.53 238.667 2138.53 244C2148.53 249 2156.69 254.833 2163.03 261.5C2169.69 267.833 2174.53 275.167 2177.53 283.5C2180.53 291.833 2182.03 301.833 2182.03 313.5C2182.03 338.5 2172.69 357.5 2154.03 370.5C2135.69 383.167 2109.36 389.5 2075.03 389.5C2052.03 389.5 2033.53 387.5 2019.53 383.5C2005.53 379.833 1995.69 376.833 1990.03 374.5L2000.53 324C2009.53 327.667 2020.19 331.167 2032.53 334.5C2045.19 337.833 2059.53 339.5 2075.53 339.5ZM2214.04 253.5C2214.04 230.5 2217.38 210.333 2224.04 193C2231.04 175.667 2240.21 161.333 2251.54 150C2262.88 138.333 2275.88 129.667 2290.54 124C2305.21 118 2320.21 115 2335.54 115C2371.54 115 2399.54 126.167 2419.54 148.5C2439.88 170.833 2450.04 204.167 2450.04 248.5C2450.04 251.833 2449.88 255.667 2449.54 260C2449.54 264 2449.38 267.667 2449.04 271H2276.54C2278.21 292 2285.54 308.333 2298.54 320C2311.88 331.333 2331.04 337 2356.04 337C2370.71 337 2384.04 335.667 2396.04 333C2408.38 330.333 2418.04 327.5 2425.04 324.5L2433.04 374C2429.71 375.667 2425.04 377.5 2419.04 379.5C2413.38 381.167 2406.71 382.667 2399.04 384C2391.71 385.667 2383.71 387 2375.04 388C2366.38 389 2357.54 389.5 2348.54 389.5C2325.54 389.5 2305.54 386.167 2288.54 379.5C2271.54 372.5 2257.54 363 2246.54 351C2235.54 338.667 2227.38 324.333 2222.04 308C2216.71 291.333 2214.04 273.167 2214.04 253.5ZM2389.54 226.5C2389.54 218.167 2388.38 210.333 2386.04 203C2383.71 195.333 2380.21 188.833 2375.54 183.5C2371.21 177.833 2365.71 173.5 2359.04 170.5C2352.71 167.167 2345.04 165.5 2336.04 165.5C2326.71 165.5 2318.54 167.333 2311.54 171C2304.54 174.333 2298.54 178.833 2293.54 184.5C2288.88 190.167 2285.21 196.667 2282.54 204C2279.88 211.333 2278.04 218.833 2277.04 226.5H2389.54Z" fill="black"/>
<g clip-path="url(#clip0_625_40)">
<path d="M101.695 0C157.859 0 203.389 45.7023 203.39 102.079C203.39 126.557 202.073 152.071 212.226 174.344L219.814 190.989C233.838 221.756 258.492 246.431 289.248 260.482L303.509 266.996C326.537 277.516 352.987 275.841 378.305 275.841C434.47 275.841 480 321.544 480 377.921C480 434.297 434.47 480 378.305 480C322.141 480 276.611 434.297 276.61 377.921C276.61 354.218 277.672 329.551 267.834 307.986L259.76 290.284C245.708 259.478 221.002 234.782 190.19 220.742L172.955 212.888C150.989 202.878 125.834 204.159 101.695 204.159C45.5304 204.159 0 158.456 0 102.079C0.000190044 45.7023 45.5304 3.62652e-05 101.695 0Z" fill="black"/>
<path d="M96.4085 480.001C149.653 480.001 192.817 436.837 192.817 383.592C192.817 330.347 149.653 287.184 96.4085 287.184C43.1635 287.184 0 330.347 0 383.592C0 436.837 43.1635 480.001 96.4085 480.001Z" fill="black"/>
<path d="M480 96.4085C480 149.653 436.836 192.817 383.592 192.817C330.347 192.817 287.184 149.653 287.184 96.4085C287.184 43.1635 330.347 0 383.592 0C436.836 0 480 43.1635 480 96.4085Z" fill="black"/>
</g>
<path d="M696.612 640V578.909H737.061V589.558H709.529V604.115H734.377V614.764H709.529V640H696.612ZM772.021 620.491V594.182H784.729V640H772.529V631.678H772.051C771.017 634.362 769.297 636.52 766.891 638.151C764.504 639.781 761.591 640.597 758.151 640.597C755.088 640.597 752.394 639.901 750.067 638.509C747.74 637.116 745.921 635.138 744.608 632.572C743.316 630.007 742.659 626.935 742.639 623.355V594.182H755.347V621.088C755.367 623.793 756.093 625.93 757.524 627.501C758.956 629.072 760.875 629.858 763.281 629.858C764.813 629.858 766.244 629.51 767.577 628.814C768.909 628.098 769.983 627.044 770.798 625.652C771.634 624.26 772.041 622.54 772.021 620.491ZM807.601 578.909V640H794.893V578.909H807.601ZM830.487 578.909V640H817.78V578.909H830.487ZM893.487 596.479C893.249 594.072 892.225 592.203 890.415 590.871C888.605 589.538 886.149 588.872 883.047 588.872C880.939 588.872 879.159 589.17 877.708 589.767C876.256 590.344 875.142 591.149 874.367 592.183C873.611 593.217 873.233 594.391 873.233 595.703C873.193 596.797 873.422 597.751 873.919 598.567C874.436 599.382 875.142 600.088 876.037 600.685C876.932 601.261 877.966 601.768 879.139 602.206C880.313 602.624 881.566 602.982 882.898 603.28L888.387 604.592C891.051 605.189 893.497 605.984 895.725 606.979C897.952 607.973 899.881 609.196 901.512 610.648C903.142 612.099 904.405 613.81 905.3 615.778C906.215 617.747 906.682 620.004 906.702 622.55C906.682 626.288 905.727 629.53 903.838 632.274C901.969 634.999 899.264 637.116 895.725 638.628C892.205 640.119 887.959 640.865 882.987 640.865C878.056 640.865 873.76 640.109 870.101 638.598C866.462 637.087 863.618 634.849 861.57 631.886C859.541 628.903 858.477 625.214 858.378 620.82H870.877C871.016 622.868 871.602 624.578 872.637 625.95C873.691 627.303 875.093 628.327 876.843 629.023C878.612 629.699 880.611 630.037 882.838 630.037C885.026 630.037 886.925 629.719 888.536 629.082C890.166 628.446 891.429 627.561 892.324 626.428C893.219 625.294 893.666 623.991 893.666 622.52C893.666 621.148 893.259 619.994 892.443 619.06C891.648 618.125 890.475 617.33 888.923 616.673C887.392 616.017 885.513 615.42 883.286 614.884L876.634 613.213C871.483 611.96 867.416 610.001 864.433 607.337C861.45 604.672 859.969 601.082 859.989 596.568C859.969 592.869 860.953 589.638 862.942 586.874C864.95 584.109 867.705 581.952 871.205 580.401C874.705 578.849 878.682 578.074 883.137 578.074C887.671 578.074 891.628 578.849 895.009 580.401C898.409 581.952 901.054 584.109 902.943 586.874C904.833 589.638 905.807 592.839 905.867 596.479H893.487ZM939.522 594.182V603.727H911.93V594.182H939.522ZM918.194 583.205H930.901V625.92C930.901 627.094 931.08 628.009 931.438 628.665C931.796 629.301 932.293 629.749 932.93 630.007C933.586 630.266 934.341 630.395 935.197 630.395C935.793 630.395 936.39 630.345 936.986 630.246C937.583 630.126 938.04 630.037 938.358 629.977L940.357 639.433C939.721 639.632 938.826 639.861 937.672 640.119C936.519 640.398 935.117 640.567 933.466 640.626C930.404 640.746 927.719 640.338 925.412 639.403C923.126 638.469 921.346 637.017 920.073 635.048C918.8 633.08 918.174 630.594 918.194 627.591V583.205ZM960.865 640.865C957.942 640.865 955.336 640.358 953.05 639.344C950.763 638.31 948.953 636.788 947.621 634.78C946.308 632.751 945.652 630.226 945.652 627.203C945.652 624.658 946.119 622.52 947.054 620.79C947.988 619.06 949.261 617.668 950.872 616.614C952.483 615.56 954.312 614.764 956.361 614.227C958.429 613.69 960.596 613.312 962.863 613.094C965.528 612.815 967.676 612.557 969.307 612.318C970.937 612.06 972.121 611.682 972.856 611.185C973.592 610.687 973.96 609.952 973.96 608.977V608.798C973.96 606.909 973.363 605.447 972.17 604.413C970.997 603.379 969.327 602.862 967.159 602.862C964.872 602.862 963.052 603.369 961.7 604.384C960.348 605.378 959.453 606.631 959.015 608.142L947.263 607.188C947.859 604.403 949.032 601.997 950.782 599.969C952.532 597.92 954.79 596.349 957.554 595.256C960.338 594.142 963.559 593.585 967.219 593.585C969.764 593.585 972.2 593.884 974.527 594.48C976.873 595.077 978.952 596.001 980.761 597.254C982.591 598.507 984.032 600.118 985.086 602.087C986.14 604.036 986.667 606.372 986.667 609.097V640H974.616V633.646H974.258C973.523 635.078 972.538 636.341 971.305 637.435C970.072 638.509 968.591 639.354 966.861 639.97C965.131 640.567 963.132 640.865 960.865 640.865ZM964.504 632.095C966.373 632.095 968.024 631.727 969.456 630.991C970.888 630.236 972.011 629.222 972.827 627.949C973.642 626.676 974.05 625.234 974.05 623.624V618.761C973.652 619.02 973.105 619.259 972.409 619.477C971.733 619.676 970.967 619.865 970.112 620.044C969.257 620.203 968.402 620.352 967.547 620.491C966.692 620.611 965.916 620.72 965.22 620.82C963.729 621.038 962.426 621.386 961.312 621.864C960.199 622.341 959.334 622.987 958.717 623.803C958.101 624.598 957.792 625.592 957.792 626.786C957.792 628.516 958.419 629.838 959.672 630.753C960.944 631.648 962.555 632.095 964.504 632.095ZM1017.23 640.895C1012.53 640.895 1008.5 639.901 1005.12 637.912C1001.76 635.903 999.171 633.119 997.361 629.56C995.572 626 994.677 621.903 994.677 617.27C994.677 612.577 995.581 608.46 997.391 604.92C999.221 601.361 1001.82 598.587 1005.18 596.598C1008.54 594.589 1012.53 593.585 1017.17 593.585C1021.17 593.585 1024.67 594.311 1027.67 595.763C1030.67 597.214 1033.05 599.253 1034.8 601.878C1036.55 604.503 1037.51 607.585 1037.69 611.125H1025.7C1025.36 608.838 1024.47 606.999 1023.01 605.607C1021.58 604.195 1019.7 603.489 1017.38 603.489C1015.41 603.489 1013.69 604.026 1012.22 605.099C1010.76 606.153 1009.63 607.695 1008.82 609.723C1008 611.751 1007.59 614.207 1007.59 617.091C1007.59 620.014 1007.99 622.5 1008.79 624.548C1009.6 626.597 1010.74 628.158 1012.22 629.232C1013.69 630.305 1015.41 630.842 1017.38 630.842C1018.83 630.842 1020.13 630.544 1021.28 629.947C1022.46 629.351 1023.42 628.486 1024.18 627.352C1024.95 626.199 1025.46 624.817 1025.7 623.206H1037.69C1037.49 626.706 1036.54 629.788 1034.83 632.453C1033.14 635.098 1030.8 637.166 1027.82 638.658C1024.83 640.149 1021.3 640.895 1017.23 640.895ZM1057.34 626.815L1057.37 611.572H1059.22L1073.9 594.182H1088.48L1068.77 617.21H1065.75L1057.34 626.815ZM1045.83 640V578.909H1058.53V640H1045.83ZM1074.46 640L1060.98 620.044L1069.45 611.065L1089.35 640H1074.46ZM1114.4 578.909H1130.33L1147.15 619.955H1147.87L1164.69 578.909H1180.62V640H1168.09V600.237H1167.58L1151.77 639.702H1143.24L1127.43 600.088H1126.93V640H1114.4V578.909ZM1245.16 600.297H1232.1C1231.86 598.607 1231.37 597.105 1230.64 595.793C1229.9 594.46 1228.96 593.327 1227.8 592.392C1226.65 591.457 1225.32 590.741 1223.8 590.244C1222.31 589.747 1220.69 589.499 1218.94 589.499C1215.78 589.499 1213.03 590.284 1210.68 591.855C1208.33 593.406 1206.51 595.673 1205.22 598.656C1203.93 601.619 1203.28 605.219 1203.28 609.455C1203.28 613.81 1203.93 617.469 1205.22 620.432C1206.53 623.395 1208.36 625.632 1210.71 627.143C1213.06 628.655 1215.77 629.411 1218.85 629.411C1220.58 629.411 1222.18 629.182 1223.66 628.724C1225.15 628.267 1226.47 627.601 1227.62 626.726C1228.78 625.831 1229.73 624.747 1230.49 623.474C1231.26 622.202 1231.8 620.75 1232.1 619.119L1245.16 619.179C1244.82 621.983 1243.98 624.688 1242.63 627.293C1241.29 629.878 1239.5 632.195 1237.23 634.243C1234.98 636.271 1232.3 637.882 1229.17 639.075C1226.07 640.249 1222.56 640.835 1218.64 640.835C1213.2 640.835 1208.32 639.602 1204.03 637.136C1199.75 634.67 1196.37 631.101 1193.89 626.428C1191.42 621.754 1190.19 616.097 1190.19 609.455C1190.19 602.793 1191.44 597.125 1193.95 592.452C1196.45 587.778 1199.85 584.219 1204.15 581.773C1208.44 579.307 1213.28 578.074 1218.64 578.074C1222.18 578.074 1225.47 578.571 1228.49 579.565C1231.53 580.56 1234.23 582.011 1236.57 583.92C1238.92 585.81 1240.83 588.126 1242.3 590.871C1243.79 593.615 1244.75 596.757 1245.16 600.297ZM1254.42 640V578.909H1278.53C1283.16 578.909 1287.11 579.794 1290.37 581.564C1293.63 583.314 1296.12 585.75 1297.83 588.872C1299.56 591.974 1300.42 595.554 1300.42 599.611C1300.42 603.668 1299.55 607.247 1297.8 610.349C1296.05 613.452 1293.51 615.868 1290.19 617.598C1286.89 619.328 1282.89 620.193 1278.2 620.193H1262.84V609.842H1276.11C1278.6 609.842 1280.65 609.415 1282.26 608.56C1283.89 607.685 1285.1 606.482 1285.9 604.95C1286.71 603.399 1287.12 601.619 1287.12 599.611C1287.12 597.582 1286.71 595.812 1285.9 594.301C1285.1 592.77 1283.89 591.587 1282.26 590.751C1280.63 589.896 1278.56 589.469 1276.05 589.469H1267.34V640H1254.42ZM1328.25 640V578.909H1368.7V589.558H1341.17V604.115H1366.02V614.764H1341.17V640H1328.25ZM1376.41 640V594.182H1388.73V602.176H1389.21C1390.04 599.332 1391.45 597.185 1393.42 595.733C1395.38 594.261 1397.65 593.526 1400.22 593.526C1400.85 593.526 1401.54 593.565 1402.28 593.645C1403.01 593.724 1403.66 593.834 1404.21 593.973V605.249C1403.62 605.07 1402.79 604.911 1401.74 604.771C1400.68 604.632 1399.72 604.562 1398.84 604.562C1396.98 604.562 1395.3 604.97 1393.83 605.786C1392.38 606.581 1391.23 607.695 1390.37 609.126C1389.54 610.558 1389.12 612.209 1389.12 614.078V640H1376.41ZM1422.54 640.865C1419.61 640.865 1417.01 640.358 1414.72 639.344C1412.43 638.31 1410.62 636.788 1409.29 634.78C1407.98 632.751 1407.32 630.226 1407.32 627.203C1407.32 624.658 1407.79 622.52 1408.73 620.79C1409.66 619.06 1410.93 617.668 1412.54 616.614C1414.15 615.56 1415.98 614.764 1418.03 614.227C1420.1 613.69 1422.27 613.312 1424.54 613.094C1427.2 612.815 1429.35 612.557 1430.98 612.318C1432.61 612.06 1433.79 611.682 1434.53 611.185C1435.26 610.687 1435.63 609.952 1435.63 608.977V608.798C1435.63 606.909 1435.04 605.447 1433.84 604.413C1432.67 603.379 1431 602.862 1428.83 602.862C1426.54 602.862 1424.72 603.369 1423.37 604.384C1422.02 605.378 1421.12 606.631 1420.69 608.142L1408.93 607.188C1409.53 604.403 1410.7 601.997 1412.45 599.969C1414.2 597.92 1416.46 596.349 1419.23 595.256C1422.01 594.142 1425.23 593.585 1428.89 593.585C1431.44 593.585 1433.87 593.884 1436.2 594.48C1438.55 595.077 1440.62 596.001 1442.43 597.254C1444.26 598.507 1445.7 600.118 1446.76 602.087C1447.81 604.036 1448.34 606.372 1448.34 609.097V640H1436.29V633.646H1435.93C1435.19 635.078 1434.21 636.341 1432.98 637.435C1431.74 638.509 1430.26 639.354 1428.53 639.97C1426.8 640.567 1424.8 640.865 1422.54 640.865ZM1426.18 632.095C1428.05 632.095 1429.7 631.727 1431.13 630.991C1432.56 630.236 1433.68 629.222 1434.5 627.949C1435.31 626.676 1435.72 625.234 1435.72 623.624V618.761C1435.32 619.02 1434.78 619.259 1434.08 619.477C1433.4 619.676 1432.64 619.865 1431.78 620.044C1430.93 620.203 1430.07 620.352 1429.22 620.491C1428.36 620.611 1427.59 620.72 1426.89 620.82C1425.4 621.038 1424.1 621.386 1422.98 621.864C1421.87 622.341 1421.01 622.987 1420.39 623.803C1419.77 624.598 1419.46 625.592 1419.46 626.786C1419.46 628.516 1420.09 629.838 1421.34 630.753C1422.62 631.648 1424.23 632.095 1426.18 632.095ZM1458.2 640V594.182H1470.31V602.266H1470.85C1471.8 599.581 1473.39 597.463 1475.62 595.912C1477.85 594.361 1480.51 593.585 1483.61 593.585C1486.75 593.585 1489.43 594.371 1491.64 595.942C1493.84 597.493 1495.32 599.601 1496.05 602.266H1496.53C1497.46 599.641 1499.15 597.543 1501.6 595.972C1504.07 594.381 1506.98 593.585 1510.34 593.585C1514.62 593.585 1518.09 594.947 1520.75 597.672C1523.44 600.376 1524.78 604.214 1524.78 609.186V640H1512.1V611.692C1512.1 609.146 1511.42 607.237 1510.07 605.964C1508.72 604.692 1507.03 604.055 1505 604.055C1502.69 604.055 1500.89 604.791 1499.6 606.263C1498.31 607.714 1497.66 609.634 1497.66 612.02V640H1485.34V611.423C1485.34 609.176 1484.7 607.386 1483.4 606.054C1482.13 604.722 1480.45 604.055 1478.36 604.055C1476.95 604.055 1475.68 604.413 1474.54 605.129C1473.43 605.825 1472.55 606.81 1471.89 608.082C1471.23 609.335 1470.91 610.807 1470.91 612.497V640H1458.2ZM1555.7 640.895C1550.98 640.895 1546.93 639.94 1543.53 638.031C1540.14 636.102 1537.54 633.378 1535.71 629.858C1533.88 626.318 1532.97 622.132 1532.97 617.3C1532.97 612.587 1533.88 608.45 1535.71 604.891C1537.54 601.331 1540.11 598.557 1543.44 596.568C1546.78 594.58 1550.69 593.585 1555.19 593.585C1558.21 593.585 1561.03 594.072 1563.63 595.047C1566.26 596.001 1568.54 597.443 1570.49 599.372C1572.46 601.301 1573.99 603.727 1575.09 606.651C1576.18 609.554 1576.73 612.955 1576.73 616.852V620.342H1538.04V612.467H1564.76C1564.76 610.638 1564.37 609.017 1563.57 607.605C1562.78 606.193 1561.67 605.089 1560.26 604.294C1558.87 603.479 1557.25 603.071 1555.4 603.071C1553.47 603.071 1551.76 603.518 1550.27 604.413C1548.8 605.288 1547.64 606.472 1546.81 607.963C1545.97 609.435 1545.54 611.075 1545.52 612.885V620.372C1545.52 622.639 1545.94 624.598 1546.78 626.249C1547.63 627.899 1548.84 629.172 1550.39 630.067C1551.94 630.962 1553.78 631.409 1555.9 631.409C1557.32 631.409 1558.61 631.21 1559.78 630.812C1560.96 630.415 1561.96 629.818 1562.8 629.023C1563.63 628.227 1564.27 627.253 1564.7 626.099L1576.46 626.875C1575.86 629.699 1574.64 632.165 1572.79 634.273C1570.96 636.361 1568.59 637.991 1565.69 639.165C1562.81 640.318 1559.47 640.895 1555.7 640.895ZM1593.73 640L1581.26 594.182H1594.12L1601.22 624.966H1601.63L1609.03 594.182H1621.65L1629.17 624.787H1629.55L1636.53 594.182H1649.36L1636.92 640H1623.47L1615.59 611.185H1615.03L1607.15 640H1593.73ZM1675.69 640.895C1671.06 640.895 1667.05 639.911 1663.67 637.942C1660.31 635.953 1657.72 633.189 1655.89 629.649C1654.06 626.089 1653.14 621.963 1653.14 617.27C1653.14 612.537 1654.06 608.401 1655.89 604.861C1657.72 601.301 1660.31 598.537 1663.67 596.568C1667.05 594.58 1671.06 593.585 1675.69 593.585C1680.33 593.585 1684.32 594.58 1687.68 596.568C1691.06 598.537 1693.67 601.301 1695.5 604.861C1697.33 608.401 1698.24 612.537 1698.24 617.27C1698.24 621.963 1697.33 626.089 1695.5 629.649C1693.67 633.189 1691.06 635.953 1687.68 637.942C1684.32 639.911 1680.33 640.895 1675.69 640.895ZM1675.75 631.051C1677.86 631.051 1679.62 630.455 1681.03 629.261C1682.44 628.048 1683.51 626.398 1684.22 624.31C1684.96 622.222 1685.33 619.845 1685.33 617.18C1685.33 614.516 1684.96 612.139 1684.22 610.051C1683.51 607.963 1682.44 606.312 1681.03 605.099C1679.62 603.886 1677.86 603.28 1675.75 603.28C1673.62 603.28 1671.83 603.886 1670.38 605.099C1668.95 606.312 1667.87 607.963 1667.13 610.051C1666.42 612.139 1666.06 614.516 1666.06 617.18C1666.06 619.845 1666.42 622.222 1667.13 624.31C1667.87 626.398 1668.95 628.048 1670.38 629.261C1671.83 630.455 1673.62 631.051 1675.75 631.051ZM1706.51 640V594.182H1718.83V602.176H1719.3C1720.14 599.332 1721.54 597.185 1723.51 595.733C1725.48 594.261 1727.75 593.526 1730.31 593.526C1730.95 593.526 1731.63 593.565 1732.37 593.645C1733.1 593.724 1733.75 593.834 1734.31 593.973V605.249C1733.71 605.07 1732.89 604.911 1731.83 604.771C1730.78 604.632 1729.81 604.562 1728.94 604.562C1727.07 604.562 1725.4 604.97 1723.93 605.786C1722.48 606.581 1721.32 607.695 1720.47 609.126C1719.63 610.558 1719.21 612.209 1719.21 614.078V640H1706.51ZM1752.39 626.815L1752.42 611.572H1754.27L1768.95 594.182H1783.53L1763.82 617.21H1760.8L1752.39 626.815ZM1740.88 640V578.909H1753.59V640H1740.88ZM1769.51 640L1756.03 620.044L1764.5 611.065L1784.4 640H1769.51Z" fill="black"/>
<defs>
<clipPath id="clip0_625_40">
<rect width="480" height="480" fill="white"/>
</clipPath>
</defs>
</svg>
