<?xml version="1.0" encoding="UTF-8"?>
<svg width="1101px" height="210px" viewBox="0 0 1101 210" version="1.1" xmlns="http://www.w3.org/2000/svg" xmlns:xlink="http://www.w3.org/1999/xlink">
    <title>logo_black</title>
    <g id="Page-1" stroke="none" stroke-width="1" fill="none" fill-rule="evenodd">
        <g id="logo_black" transform="translate(0.779300, 0.779000)" fill="#000000" fill-rule="nonzero">
            <path d="M290.0467,170.221 L290.0467,67.1301 L317.2967,67.1301 L317.2967,85.319 L318.5047,85.319 C320.6517,79.278 324.2317,74.513 329.2427,71.023 C334.2547,67.533 340.2497,65.7878 347.2307,65.7878 C354.2997,65.7878 360.3177,67.555 365.2847,71.09 C370.2507,74.58 373.5627,79.323 375.2177,85.319 L376.2917,85.319 C378.3947,79.412 382.1977,74.692 387.7017,71.157 C393.2497,67.578 399.8047,65.7878 407.3667,65.7878 C416.9867,65.7878 424.7947,68.853 430.7907,74.983 C436.8307,81.068 439.8507,89.704 439.8507,100.89 L439.8507,170.221 L411.3267,170.221 L411.3267,106.527 C411.3267,100.8 409.8047,96.505 406.7627,93.641 C403.7197,90.777 399.9167,89.346 395.3527,89.346 C390.1627,89.346 386.1127,91.001 383.2047,94.312 C380.2967,97.579 378.8417,101.896 378.8417,107.266 L378.8417,170.221 L351.1227,170.221 L351.1227,105.923 C351.1227,100.867 349.6687,96.84 346.7607,93.842 C343.8967,90.845 340.1157,89.346 335.4177,89.346 C332.2407,89.346 329.3777,90.151 326.8267,91.762 C324.3207,93.328 322.3297,95.543 320.8537,98.406 C319.3767,101.225 318.6387,104.536 318.6387,108.34 L318.6387,170.221 L290.0467,170.221 Z M509.0147,172.234 C498.4547,172.234 489.3717,169.997 481.7657,165.523 C474.2037,161.004 468.3867,154.739 464.3147,146.73 C460.2877,138.721 458.2747,129.504 458.2747,119.078 C458.2747,108.519 460.3107,99.257 464.3817,91.292 C468.4987,83.283 474.3377,77.041 481.8997,72.567 C489.4617,68.047 498.4547,65.7878 508.8807,65.7878 C517.8737,65.7878 525.7487,67.421 532.5057,70.687 C539.2617,73.954 544.6087,78.54 548.5457,84.446 C552.4837,90.352 554.6537,97.288 555.0567,105.252 L528.0757,105.252 C527.3147,100.107 525.3017,95.968 522.0347,92.836 C518.8137,89.659 514.5847,88.07 509.3497,88.07 C504.9207,88.07 501.0497,89.279 497.7387,91.695 C494.4727,94.066 491.9217,97.534 490.0877,102.098 C488.2527,106.662 487.3357,112.188 487.3357,118.676 C487.3357,125.253 488.2307,130.846 490.0207,135.455 C491.8547,140.063 494.4277,143.576 497.7387,145.992 C501.0497,148.408 504.9207,149.616 509.3497,149.616 C512.6167,149.616 515.5467,148.945 518.1427,147.603 C520.7827,146.26 522.9527,144.314 524.6527,141.764 C526.3977,139.168 527.5387,136.059 528.0757,132.434 L555.0567,132.434 C554.6087,140.309 552.4617,147.245 548.6137,153.241 C544.8097,159.192 539.5527,163.845 532.8407,167.201 C526.1297,170.557 518.1867,172.234 509.0147,172.234 Z M573.3627,208.88 L573.3627,67.1301 L601.5517,67.1301 L601.5517,84.446 L602.8267,84.446 C604.0797,81.672 605.8917,78.853 608.2627,75.989 C610.6787,73.081 613.8117,70.665 617.6597,68.741 C621.5517,66.7721 626.3847,65.7878 632.1567,65.7878 C639.6737,65.7878 646.6087,67.757 652.9627,71.694 C659.3167,75.587 664.3947,81.471 668.1977,89.346 C672.0017,97.176 673.9027,106.997 673.9027,118.81 C673.9027,130.309 672.0457,140.019 668.3327,147.938 C664.6637,155.813 659.6517,161.787 653.2977,165.858 C646.9897,169.885 639.9197,171.899 632.0897,171.899 C626.5407,171.899 621.8207,170.982 617.9277,169.147 C614.0797,167.313 610.9257,165.008 608.4647,162.234 C606.0037,159.415 604.1237,156.574 602.8267,153.71 L601.9537,153.71 L601.9537,208.88 L573.3627,208.88 Z M601.3497,118.676 C601.3497,124.806 602.1997,130.152 603.9007,134.716 C605.6007,139.28 608.0617,142.837 611.2837,145.388 C614.5047,147.894 618.4197,149.146 623.0287,149.146 C627.6817,149.146 631.6197,147.871 634.8407,145.321 C638.0627,142.726 640.5017,139.146 642.1567,134.582 C643.8567,129.973 644.7077,124.671 644.7077,118.676 C644.7077,112.725 643.8797,107.489 642.2237,102.97 C640.5687,98.451 638.1297,94.916 634.9087,92.366 C631.6867,89.815 627.7267,88.54 623.0287,88.54 C618.3757,88.54 614.4377,89.771 611.2157,92.232 C608.0397,94.693 605.6007,98.183 603.9007,102.702 C602.1997,107.221 601.3497,112.546 601.3497,118.676 Z M757.1947,102.433 L757.1947,125.119 L694.5077,125.119 L694.5077,102.433 L757.1947,102.433 Z M847.6677,126.327 L847.6677,67.1301 L876.2587,67.1301 L876.2587,170.221 L848.8087,170.221 L848.8087,151.496 L847.7347,151.496 C845.4077,157.536 841.5377,162.391 836.1237,166.06 C830.7537,169.729 824.1987,171.563 816.4587,171.563 C809.5677,171.563 803.5047,169.997 798.2697,166.865 C793.0347,163.733 788.9407,159.281 785.9877,153.509 C783.0787,147.737 781.6027,140.824 781.5577,132.77 L781.5577,67.1301 L810.1497,67.1301 L810.1497,127.669 C810.1937,133.754 811.8277,138.564 815.0487,142.099 C818.2707,145.634 822.5887,147.401 828.0027,147.401 C831.4477,147.401 834.6697,146.618 837.6667,145.052 C840.6647,143.442 843.0807,141.07 844.9157,137.938 C846.7947,134.806 847.7127,130.935 847.6677,126.327 Z M984.9007,96.527 L958.7287,98.138 C958.2807,95.901 957.3187,93.887 955.8427,92.097 C954.3657,90.263 952.4197,88.809 950.0037,87.735 C947.6317,86.616 944.7907,86.057 941.4797,86.057 C937.0497,86.057 933.3137,86.997 930.2707,88.876 C927.2287,90.71 925.7067,93.171 925.7067,96.259 C925.7067,98.72 926.6917,100.8 928.6607,102.5 C930.6287,104.201 934.0077,105.565 938.7947,106.595 L957.4537,110.353 C967.4757,112.411 974.9487,115.722 979.8697,120.286 C984.7907,124.85 987.2507,130.846 987.2507,138.274 C987.2507,145.03 985.2607,150.959 981.2797,156.059 C977.3417,161.16 971.9277,165.143 965.0377,168.006 C958.1917,170.825 950.2937,172.234 941.3457,172.234 C927.6987,172.234 916.8257,169.393 908.7267,163.711 C900.6727,157.983 895.9517,150.198 894.5647,140.354 L922.6867,138.878 C923.5367,143.039 925.5957,146.216 928.8617,148.408 C932.1277,150.556 936.3117,151.63 941.4127,151.63 C946.4237,151.63 950.4507,150.668 953.4937,148.744 C956.5807,146.775 958.1467,144.247 958.1917,141.16 C958.1467,138.564 957.0507,136.439 954.9027,134.783 C952.7547,133.083 949.4437,131.786 944.9697,130.891 L927.1167,127.334 C917.0487,125.32 909.5547,121.83 904.6327,116.863 C899.7557,111.897 897.3167,105.565 897.3167,97.869 C897.3167,91.247 899.1067,85.542 902.6867,80.755 C906.3107,75.967 911.3887,72.276 917.9217,69.681 C924.4987,67.0853 932.1947,65.7878 941.0097,65.7878 C954.0307,65.7878 964.2767,68.54 971.7487,74.043 C979.2657,79.547 983.6507,87.041 984.9007,96.527 Z M1052.2407,172.234 C1041.6307,172.234 1032.5107,170.087 1024.8507,165.791 C1017.2507,161.451 1011.3907,155.321 1007.2707,147.401 C1003.1507,139.437 1001.1007,130.018 1001.1007,119.145 C1001.1007,108.541 1003.1507,99.234 1007.2707,91.225 C1011.3907,83.216 1017.1807,76.974 1024.6507,72.499 C1032.1707,68.025 1040.9807,65.7878 1051.1007,65.7878 C1057.9007,65.7878 1064.2307,66.884 1070.0907,69.076 C1076.0007,71.224 1081.1407,74.468 1085.5307,78.808 C1089.9607,83.149 1093.4007,88.607 1095.8607,95.185 C1098.3207,101.717 1099.5507,109.369 1099.5507,118.139 L1099.5507,125.991 L1012.5007,125.991 L1012.5007,108.272 L1072.6407,108.272 C1072.6407,104.156 1071.7507,100.509 1069.9607,97.333 C1068.1707,94.156 1065.6807,91.672 1062.5107,89.883 C1059.3707,88.048 1055.7307,87.131 1051.5707,87.131 C1047.2307,87.131 1043.3807,88.138 1040.0207,90.151 C1036.7107,92.12 1034.1207,94.782 1032.2407,98.138 C1030.3607,101.449 1029.4007,105.14 1029.3507,109.212 L1029.3507,126.058 C1029.3507,131.159 1030.2907,135.567 1032.1707,139.28 C1034.0907,142.994 1036.8007,145.858 1040.2907,147.871 C1043.7807,149.885 1047.9207,150.891 1052.7107,150.891 C1055.8807,150.891 1058.7907,150.444 1061.4307,149.549 C1064.0707,148.654 1066.3307,147.312 1068.2107,145.522 C1070.0907,143.732 1071.5207,141.54 1072.5107,138.945 L1098.9507,140.69 C1097.6107,147.043 1094.8607,152.592 1090.7007,157.335 C1086.5807,162.033 1081.2507,165.702 1074.7207,168.342 C1068.2307,170.937 1060.7407,172.234 1052.2407,172.234 Z" id="Shape"></path>
            <path d="M66.2465327,11.1000886 L66.7042,11.5504 C74.8523024,19.6984486 78.62162,30.5671192 78.0121529,41.2322909 C78.850204,62.5154937 87.3940752,83.5513329 103.6427,99.799 C119.890622,116.047879 140.92659,124.591855 162.209743,125.43005 C172.676552,124.83106 183.339292,128.450253 191.434033,136.286689 L191.8917,136.737 C207.0537,151.899 207.0537,176.482 191.8917,191.644 C176.88132,206.65438 152.637418,206.804484 137.442367,192.094311 L136.9847,191.644 C129.093083,183.752383 125.308946,173.308557 125.63229,162.969303 L125.5097,162.846 C124.8297,141.328 116.2777,120.012 99.8537,103.588 C83.6117933,87.3455 62.5864828,78.8020164 41.3124887,77.9575493 L40.5953,77.932 L40.473131,77.8093531 C30.3323242,78.1267575 20.0908413,74.4927112 12.2553673,66.9072144 L11.7977,66.4569 C-3.21268,51.44652 -3.3627838,27.203108 11.3473886,12.0080673 L11.7977,11.5504 C26.6579762,-3.3098762 50.5675471,-3.6055957 65.7879852,10.6632415 L66.2465327,11.1000886 Z" id="Path"></path>
            <circle id="Oval" cx="38.8248" cy="164.617" r="38.8248"></circle>
            <circle id="Oval" cx="164.6167" cy="38.8248" r="38.8248"></circle>
        </g>
    </g>
</svg>