<svg width="183" height="40" viewBox="0 0 183 40" fill="none" xmlns="http://www.w3.org/2000/svg">
<g clip-path="url(#clip0_443_429)">
<path d="M0 6C0 4.4087 0.632141 2.88258 1.75736 1.75736C2.88258 0.632141 4.4087 0 6 0L177 0C178.591 0 180.117 0.632141 181.243 1.75736C182.368 2.88258 183 4.4087 183 6V34C183 35.5913 182.368 37.1174 181.243 38.2426C180.117 39.3679 178.591 40 177 40H6C4.4087 40 2.88258 39.3679 1.75736 38.2426C0.632141 37.1174 0 35.5913 0 34L0 6Z" fill="url(#paint0_linear_443_429)"/>
<g clip-path="url(#clip1_443_429)">
<path d="M73.5263 17.8063C72.9399 17.409 71.3994 17.2393 70.2795 17.5432C70.2194 16.4203 69.6437 15.4739 68.5914 14.6481L68.202 14.385L67.9424 14.7798C67.4321 15.5594 67.2169 16.5986 67.293 17.5432C67.3531 18.1253 67.554 18.7793 67.9424 19.2539C66.4847 20.1051 65.1408 19.9118 59.1898 19.9118H50.002C49.9754 21.2645 50.1912 23.8662 51.8349 25.9842C52.0166 26.2183 52.2154 26.4445 52.4316 26.6625C53.7681 28.0095 55.7873 28.9975 58.8065 29C63.4128 29.0043 67.3592 26.4979 69.7599 20.4384C70.5498 20.4513 72.6351 20.5809 73.6558 18.596C73.6807 18.5627 73.9154 18.0698 73.9154 18.0698L73.5263 17.8067V17.8063ZM55.9981 16.5696H53.4146V19.1701H55.9981V16.5696ZM59.3356 16.5696H56.7521V19.1701H59.3356V16.5696ZM62.6735 16.5696H60.0899V19.1701H62.6735V16.5696ZM66.0113 16.5696H63.4278V19.1701H66.0113V16.5696ZM52.6603 16.5696H50.0767V19.1701H52.6603V16.5696ZM55.9981 13.285H53.4146V15.8855H55.9981V13.285ZM59.3356 13.285H56.7521V15.8855H59.3356V13.285ZM62.6735 13.285H60.0899V15.8855H62.6735V13.285ZM62.6735 10H60.0899V12.6006H62.6735V10Z" fill="white"/>
<path d="M132.839 25.0091C132.839 25.687 132.31 26.2193 131.622 26.2193C130.935 26.2193 130.398 25.687 130.398 25.0091C130.398 24.3311 130.941 23.8135 131.622 23.8135C132.303 23.8135 132.839 24.3458 132.839 25.0091ZM130.703 25.0091C130.703 25.5413 131.094 25.9641 131.63 25.9641C132.166 25.9641 132.535 25.5413 132.535 25.0166C132.535 24.4918 132.151 24.054 131.623 24.054C131.095 24.054 130.703 24.4843 130.703 25.0091H130.703ZM131.435 25.6362H131.159V24.4406C131.268 24.4188 131.42 24.4041 131.615 24.4041C131.84 24.4041 131.941 24.4406 132.028 24.4918C132.094 24.5426 132.144 24.6375 132.144 24.7542C132.144 24.8856 132.043 24.9876 131.898 25.0312V25.0459C132.014 25.0892 132.079 25.1769 132.115 25.3373C132.151 25.5195 132.173 25.5925 132.202 25.6362H131.906C131.869 25.5925 131.847 25.4833 131.811 25.3445C131.79 25.2134 131.717 25.1551 131.565 25.1551H131.435V25.6366V25.6362ZM131.441 24.9582H131.572C131.724 24.9582 131.847 24.9074 131.847 24.7835C131.847 24.674 131.768 24.6006 131.593 24.6006C131.521 24.6006 131.47 24.6081 131.441 24.616V24.9582Z" fill="white"/>
<path d="M86.1713 12.9095C86.001 12.7419 85.7965 12.6567 85.5515 12.6567C85.3064 12.6567 85.0959 12.7419 84.932 12.9095C84.7677 13.077 84.6873 13.2918 84.6873 13.5477V17.8217C83.8445 17.1205 82.8719 16.7668 81.7655 16.7668C80.4796 16.7668 79.38 17.2343 78.4689 18.1725C77.5578 19.1075 77.1055 20.2386 77.1055 21.5652C77.1055 22.8918 77.561 24.0197 78.4689 24.9579C79.38 25.8929 80.4768 26.3636 81.7655 26.3636C83.0543 26.3636 84.1389 25.8961 85.0621 24.9579C85.9732 24.0323 86.4256 22.9015 86.4256 21.5652V13.5477C86.4256 13.2918 86.342 13.077 86.1713 12.9095ZM84.4579 22.7214V22.7279C84.3061 23.0912 84.0984 23.4101 83.8352 23.6818C83.5721 23.9567 83.262 24.1715 82.9088 24.3326C82.5525 24.4937 82.1745 24.5728 81.7687 24.5728C81.363 24.5728 80.9757 24.4937 80.6194 24.3326C80.263 24.1715 79.9561 23.9567 79.6962 23.685C79.4358 23.4133 79.2285 23.0944 79.0767 22.7311C78.9248 22.3645 78.8473 21.9761 78.8473 21.5652C78.8473 21.1543 78.9248 20.7659 79.0767 20.3993C79.2285 20.0328 79.4362 19.7171 79.6962 19.4454C79.9565 19.1737 80.2662 18.9589 80.6194 18.7978C80.9757 18.6368 81.3569 18.5577 81.7687 18.5577C82.1805 18.5577 82.5525 18.6368 82.9088 18.7978C83.2652 18.9589 83.5721 19.1737 83.8352 19.4486C84.0984 19.7235 84.3061 20.0425 84.4579 20.4026C84.6098 20.7659 84.6873 21.1514 84.6873 21.562C84.6873 21.9726 84.6098 22.3613 84.4579 22.7214Z" fill="white"/>
<path d="M124.671 19.7234C124.445 19.1546 124.1 18.6399 123.648 18.1785L123.642 18.1752C122.722 17.2402 121.622 16.7695 120.346 16.7695C119.07 16.7695 117.96 17.237 117.049 18.1752C116.138 19.1102 115.686 20.2414 115.686 21.5679C115.686 22.8945 116.141 24.0225 117.049 24.9607C117.96 25.8956 119.057 26.3664 120.346 26.3664C121.516 26.3664 122.529 25.978 123.391 25.2009C123.558 25.024 123.642 24.8092 123.642 24.5594C123.642 24.3095 123.562 24.0887 123.397 23.9212C123.233 23.7536 123.026 23.6684 122.778 23.6684C122.561 23.6749 122.369 23.7475 122.205 23.8929C121.944 24.1202 121.662 24.2941 121.356 24.408C121.049 24.5218 120.714 24.5787 120.349 24.5787C120.027 24.5787 119.717 24.5282 119.423 24.4241C119.128 24.3199 118.853 24.1775 118.608 23.9913C118.359 23.8048 118.146 23.584 117.963 23.3216C117.781 23.0624 117.641 22.775 117.548 22.4593H124.139C124.383 22.4593 124.587 22.3741 124.758 22.2065C124.929 22.039 125.012 21.8242 125.012 21.5683C125.012 20.905 124.897 20.289 124.672 19.7234H124.671ZM117.542 20.6773C117.632 20.3645 117.768 20.0771 117.95 19.815C118.134 19.5559 118.35 19.3318 118.598 19.1453C118.849 18.9588 119.122 18.8167 119.422 18.7125C119.722 18.6084 120.029 18.5579 120.346 18.5579C120.662 18.5579 120.968 18.6084 121.265 18.7125C121.563 18.8167 121.836 18.9588 122.08 19.1453C122.329 19.3318 122.545 19.5526 122.728 19.815C122.914 20.0742 123.054 20.3616 123.15 20.6773H117.541H117.542Z" fill="white"/>
<path d="M132.77 17.37C132.615 17.2154 132.42 17.0951 132.184 17.0067C131.949 16.9183 131.692 16.8581 131.41 16.8234C131.131 16.7887 130.867 16.7729 130.623 16.7729C130.068 16.7729 129.548 16.8646 129.058 17.0479C128.569 17.2311 128.116 17.4932 127.701 17.8343V17.6639C127.701 17.4176 127.617 17.2089 127.447 17.0353C127.277 16.8617 127.075 16.7733 126.837 16.7733C126.598 16.7733 126.387 16.8617 126.217 17.0353C126.046 17.2089 125.963 17.4209 125.963 17.6639V25.4763C125.963 25.7226 126.046 25.9313 126.217 26.1049C126.387 26.2785 126.592 26.3669 126.837 26.3669C127.082 26.3669 127.279 26.2785 127.447 26.1049C127.617 25.9313 127.701 25.7194 127.701 25.4763V21.5685C127.701 21.1515 127.778 20.7599 127.93 20.3933C128.082 20.0268 128.29 19.7111 128.553 19.4394C128.817 19.1677 129.126 18.9529 129.479 18.7979C129.836 18.6401 130.214 18.5609 130.62 18.5609C131.026 18.5609 131.41 18.6336 131.76 18.7757C131.899 18.8391 132.021 18.8706 132.126 18.8706C132.247 18.8706 132.361 18.8484 132.466 18.8011C132.572 18.7539 132.665 18.6905 132.742 18.6086C132.82 18.5266 132.881 18.4317 132.928 18.3211C132.975 18.2137 133 18.0967 133 17.9703C133 17.724 132.922 17.525 132.767 17.37H132.77H132.77Z" fill="white"/>
<path d="M96.3896 19.7267C96.1634 19.1612 95.8255 18.6432 95.3704 18.1757C94.4504 17.2407 93.3504 16.77 92.0738 16.77C90.7971 16.77 89.6883 17.2375 88.7772 18.1757C87.8661 19.1107 87.4141 20.2418 87.4141 21.5684C87.4141 22.895 87.8696 24.0229 88.7772 24.9611C89.6883 25.8961 90.785 26.3668 92.0738 26.3668C93.3625 26.3668 94.4472 25.8994 95.3704 24.9611C96.2815 24.0355 96.7338 22.9047 96.7338 21.5684C96.7274 20.9051 96.6129 20.2923 96.3899 19.7267H96.3896ZM94.7662 22.7214V22.7279C94.6143 23.0912 94.4066 23.4101 94.1435 23.6818C93.8803 23.9567 93.5702 24.1715 93.2171 24.3326C92.8639 24.4937 92.4827 24.5728 92.077 24.5728C91.6712 24.5728 91.2839 24.4937 90.9276 24.3326C90.5713 24.1715 90.2644 23.9567 90.0044 23.685C89.7441 23.4133 89.5368 23.0944 89.3849 22.7311C89.2331 22.3645 89.1555 21.9761 89.1555 21.5652C89.1555 21.1543 89.2331 20.7659 89.3849 20.3993C89.5368 20.0328 89.7444 19.7171 90.0044 19.4454C90.2647 19.1737 90.5745 18.9589 90.9276 18.7978C91.2839 18.6368 91.6651 18.5577 92.077 18.5577C92.4888 18.5577 92.8607 18.6368 93.2171 18.7978C93.5734 18.9589 93.8803 19.1737 94.1435 19.4486C94.4066 19.7235 94.6143 20.0425 94.7662 20.4026C94.918 20.7659 94.9955 21.1514 94.9955 21.562C94.9955 21.9726 94.918 22.3613 94.7662 22.7214Z" fill="white"/>
<path d="M115.029 17.6606C115.029 17.5406 115.004 17.4268 114.957 17.3194C114.911 17.212 114.849 17.1143 114.771 17.032C114.694 16.95 114.601 16.8834 114.496 16.8394C114.391 16.7954 114.276 16.77 114.155 16.77C113.982 16.77 113.827 16.8143 113.69 16.906L108.714 20.2389V13.5541C108.714 13.3014 108.631 13.0898 108.461 12.9158C108.29 12.7422 108.089 12.6538 107.85 12.6538C107.612 12.6538 107.401 12.7422 107.23 12.9158C107.06 13.0894 106.977 13.3014 106.977 13.5541V25.4637C106.977 25.7099 107.06 25.9218 107.23 26.0987C107.401 26.2755 107.605 26.3639 107.85 26.3639C108.095 26.3639 108.293 26.2755 108.461 26.0987C108.631 25.9218 108.714 25.7099 108.714 25.4637V22.3709L109.731 21.6854L113.576 26.1302C113.731 26.2848 113.926 26.3607 114.158 26.3607C114.279 26.3607 114.394 26.3385 114.499 26.2913C114.604 26.2469 114.697 26.1806 114.775 26.0987C114.852 26.0167 114.914 25.9218 114.961 25.8112C115.007 25.7038 115.032 25.5868 115.032 25.4701C115.032 25.2364 114.951 25.0277 114.79 24.8448L111.211 20.6971L114.697 18.3657C114.92 18.2111 115.028 17.9741 115.028 17.6548V17.6613L115.029 17.6606Z" fill="white"/>
<path d="M100.296 19.4391C100.562 19.1674 100.872 18.9526 101.229 18.7977C101.585 18.6398 101.963 18.5607 102.369 18.5607C102.734 18.5607 103.072 18.624 103.385 18.75C103.695 18.8764 103.992 19.0629 104.274 19.306C104.441 19.4416 104.63 19.5111 104.841 19.5111C105.092 19.5111 105.296 19.4259 105.461 19.2551C105.625 19.0844 105.705 18.8696 105.705 18.6137C105.705 18.3577 105.606 18.1208 105.405 17.9378C104.55 17.1607 103.537 16.772 102.369 16.772C101.083 16.772 99.9832 17.2395 99.0721 18.1777C98.161 19.1127 97.709 20.2438 97.709 21.5704C97.709 22.897 98.1645 24.0249 99.0721 24.9631C99.9832 25.8981 101.08 26.3688 102.369 26.3688C103.534 26.3688 104.547 25.9804 105.405 25.2029C105.588 25.0136 105.681 24.7956 105.681 24.5429C105.681 24.2901 105.6 24.0721 105.436 23.9046C105.272 23.7371 105.065 23.6519 104.817 23.6519C104.606 23.6584 104.423 23.7214 104.268 23.8413C103.99 24.0875 103.698 24.2708 103.385 24.394C103.076 24.5171 102.738 24.5772 102.369 24.5772C101.963 24.5772 101.585 24.4981 101.229 24.3403C100.873 24.1824 100.563 23.9676 100.296 23.6992C100.03 23.4307 99.8189 23.1085 99.667 22.7452C99.5152 22.3787 99.4377 21.987 99.4377 21.57C99.4377 21.153 99.5152 20.7614 99.667 20.3949C99.8189 20.0283 100.029 19.7126 100.296 19.4409V19.4377L100.296 19.4391Z" fill="white"/>
</g>
</g>
<defs>
<linearGradient id="paint0_linear_443_429" x1="181" y1="6.69087e-06" x2="26" y2="37.5" gradientUnits="userSpaceOnUse">
<stop stop-color="#8EB1F6"/>
<stop offset="0.0961538" stop-color="#8EB1F6"/>
<stop offset="1" stop-color="#1D63ED"/>
</linearGradient>
<clipPath id="clip0_443_429">
<rect width="183" height="40" fill="white"/>
</clipPath>
<clipPath id="clip1_443_429">
<rect width="83" height="19" fill="white" transform="translate(50 10)"/>
</clipPath>
</defs>
</svg>
