<svg width="525" height="525" viewBox="0 0 525 525" fill="none" xmlns="http://www.w3.org/2000/svg">
<rect width="525" height="525" rx="262.5" fill="black"/>
<path d="M238 358.687C223.381 353.519 210.724 343.946 201.769 331.288C192.815 318.629 188.005 303.506 188 288V250.5C188 237.239 193.268 224.521 202.645 215.145C212.021 205.768 224.739 200.5 238 200.5H288C301.196 200.5 313.857 205.716 323.223 215.012C332.59 224.308 337.901 236.929 338 250.125" stroke="white" stroke-width="22" stroke-linecap="round" stroke-linejoin="round"/>
<path d="M288 300.537C287.993 298.319 288.577 296.139 289.691 294.221C290.806 292.303 292.41 290.716 294.341 289.623C296.271 288.529 298.458 287.97 300.676 288.001C302.894 288.032 305.064 288.653 306.962 289.8L369.425 327.262C371.285 328.371 372.824 329.943 373.894 331.825C374.963 333.708 375.525 335.835 375.525 338C375.525 340.165 374.963 342.292 373.894 344.175C372.824 346.057 371.285 347.629 369.425 348.737L306.962 386.2C305.063 387.347 302.892 387.968 300.672 387.999C298.453 388.03 296.266 387.469 294.335 386.374C292.404 385.28 290.8 383.691 289.687 381.771C288.573 379.851 287.991 377.669 288 375.45V300.537Z" stroke="white" stroke-width="22" stroke-linecap="round" stroke-linejoin="round"/>
<path d="M289.5 161.5L313 138" stroke="white" stroke-width="22" stroke-linecap="round" stroke-linejoin="round"/>
<path d="M375.5 175.5C375.486 187.777 370.955 199.62 362.772 208.771C354.588 217.923 343.324 223.744 331.125 225.125" stroke="white" stroke-width="22" stroke-linecap="round" stroke-linejoin="round"/>
<path d="M150.5 375.5C150.485 362.641 155.426 350.27 164.295 340.959C173.164 331.647 185.28 326.111 198.125 325.5" stroke="white" stroke-width="22" stroke-linecap="round" stroke-linejoin="round"/>
<path d="M150.5 175.5C150.514 187.777 155.045 199.62 163.228 208.771C171.412 217.923 182.676 223.744 194.875 225.125" stroke="white" stroke-width="22" stroke-linecap="round" stroke-linejoin="round"/>
<path d="M188 275.5H138" stroke="white" stroke-width="22" stroke-linecap="round" stroke-linejoin="round"/>
<path d="M213 138L236.5 161.5" stroke="white" stroke-width="22" stroke-linecap="round" stroke-linejoin="round"/>
<path d="M225.5 202.125V188C225.5 178.054 229.451 168.516 236.483 161.483C243.516 154.451 253.054 150.5 263 150.5C272.946 150.5 282.484 154.451 289.517 161.483C296.549 168.516 300.5 178.054 300.5 188V202.125" stroke="white" stroke-width="22" stroke-linecap="round" stroke-linejoin="round"/>
</svg>
