<svg width="312" height="312" viewBox="0 0 312 312" fill="none" xmlns="http://www.w3.org/2000/svg">
<rect x="0.5" y="0.5" width="311" height="311" fill="black" stroke="black"/>
<g clip-path="url(#clip0_432_422)">
<path d="M122.425 126.763C108.076 141.112 84.8113 141.112 70.4622 126.763C56.113 112.414 56.113 89.1489 70.4622 74.7998C84.8113 60.4506 108.076 60.4506 122.425 74.7998C136.774 89.1489 136.774 112.414 122.425 126.763Z" fill="white"/>
<path d="M240.9 245.238C226.551 259.587 203.287 259.587 188.937 245.238C174.588 230.889 174.588 207.625 188.937 193.275C203.287 178.926 226.551 178.926 240.9 193.275C255.25 207.625 255.25 230.889 240.9 245.238Z" fill="white"/>
<path d="M112.37 79.6581L133 100.288C133.157 121.331 141.263 142.326 157.318 158.382C173.374 174.438 194.369 182.543 215.412 182.7L236.042 203.33L199.668 239.704L178.012 218.047C177.368 197.683 169.277 177.511 153.733 161.967C138.19 146.424 118.017 138.332 97.6529 137.689L75.9963 116.032L112.37 79.6581Z" fill="white"/>
<ellipse cx="95.9757" cy="219.725" rx="36.7433" ry="36.7433" fill="white"/>
<ellipse cx="215.024" cy="100.676" rx="36.7433" ry="36.7433" fill="white"/>
</g>
<defs>
<clipPath id="clip0_432_422">
<rect width="222.401" height="222.401" fill="white" transform="translate(44.2993 49)"/>
</clipPath>
</defs>
</svg>
