<svg width="183" height="41" viewBox="0 0 183 41" fill="none" xmlns="http://www.w3.org/2000/svg">
<path d="M0 6.15C0 4.51892 0.632141 2.95464 1.75736 1.80129C2.88258 0.647945 4.4087 0 6 0H177C178.591 0 180.117 0.647945 181.243 1.80129C182.368 2.95464 183 4.51892 183 6.15V34.85C183 36.4811 182.368 38.0454 181.243 39.1987C180.117 40.3521 178.591 41 177 41H6C4.4087 41 2.88258 40.3521 1.75736 39.1987C0.632141 38.0454 0 36.4811 0 34.85V6.15Z" fill="url(#paint0_linear_441_490)"/>
<path d="M57.4146 15.1691H59.506V21.5268C59.506 22.2406 59.3337 22.8652 58.9892 23.4006C58.6479 23.936 58.1697 24.3535 57.5546 24.653C56.9396 24.9494 56.2231 25.0976 55.4052 25.0976C54.5841 25.0976 53.866 24.9494 53.251 24.653C52.6359 24.3535 52.1577 23.936 51.8164 23.4006C51.4751 22.8652 51.3044 22.2406 51.3044 21.5268V15.1691H53.3959V21.3499C53.3959 21.7228 53.478 22.0542 53.6422 22.3442C53.8097 22.6342 54.0447 22.862 54.3474 23.0278C54.6501 23.1935 55.0027 23.2763 55.4052 23.2763C55.8109 23.2763 56.1635 23.1935 56.463 23.0278C56.7657 22.862 56.9992 22.6342 57.1634 22.3442C57.3308 22.0542 57.4146 21.7228 57.4146 21.3499V15.1691Z" fill="#F0F0F0"/>
<path d="M67.3611 19.7103L65.4773 19.825C65.4451 19.6657 65.3759 19.5223 65.2696 19.3948C65.1634 19.2642 65.0233 19.1606 64.8494 19.0841C64.6787 19.0044 64.4742 18.9646 64.236 18.9646C63.9172 18.9646 63.6483 19.0315 63.4293 19.1654C63.2104 19.296 63.1009 19.4713 63.1009 19.6912C63.1009 19.8665 63.1717 20.0147 63.3134 20.1357C63.4551 20.2568 63.6982 20.354 64.0427 20.4273L65.3855 20.695C66.1068 20.8416 66.6446 21.0774 66.9988 21.4025C67.353 21.7276 67.5301 22.1546 67.5301 22.6836C67.5301 23.1648 67.3868 23.587 67.1002 23.9503C66.8169 24.3136 66.4272 24.5973 65.9313 24.8012C65.4387 25.002 64.8703 25.1024 64.2263 25.1024C63.2442 25.1024 62.4617 24.9 61.8788 24.4953C61.2992 24.0874 60.9595 23.5329 60.8597 22.8318L62.8835 22.7266C62.9447 23.023 63.0928 23.2492 63.3279 23.4054C63.563 23.5584 63.864 23.6348 64.2311 23.6348C64.5918 23.6348 64.8816 23.5663 65.1006 23.4293C65.3227 23.2891 65.4354 23.109 65.4387 22.8891C65.4354 22.7043 65.3566 22.5529 65.202 22.435C65.0474 22.3139 64.8091 22.2215 64.4871 22.1578L63.2023 21.9044C62.4778 21.761 61.9384 21.5124 61.5842 21.1587C61.2332 20.805 61.0577 20.354 61.0577 19.8059C61.0577 19.3343 61.1865 18.928 61.4441 18.587C61.705 18.246 62.0704 17.9831 62.5406 17.7982C63.0139 17.6134 63.5678 17.521 64.2021 17.521C65.1392 17.521 65.8766 17.717 66.4144 18.1089C66.9553 18.5009 67.2709 19.0347 67.3611 19.7103Z" fill="#F0F0F0"/>
<path d="M72.2069 25.1024C71.4438 25.1024 70.7869 24.9494 70.2362 24.6435C69.6888 24.3343 69.267 23.8978 68.9707 23.3337C68.6745 22.7664 68.5263 22.0956 68.5263 21.3212C68.5263 20.566 68.6745 19.9031 68.9707 19.3327C69.267 18.7622 69.684 18.3177 70.2217 17.999C70.7627 17.6803 71.3971 17.521 72.1248 17.521C72.6143 17.521 73.0699 17.5991 73.4918 17.7552C73.9168 17.9082 74.2871 18.1392 74.6027 18.4483C74.9215 18.7575 75.1694 19.1463 75.3465 19.6147C75.5236 20.08 75.6122 20.6249 75.6122 21.2495V21.8088H69.3475V20.5468H73.6753C73.6753 20.2537 73.6109 19.9939 73.4821 19.7677C73.3533 19.5414 73.1746 19.3645 72.9459 19.2371C72.7205 19.1064 72.4581 19.0411 72.1586 19.0411C71.8463 19.0411 71.5693 19.1128 71.3278 19.2562C71.0896 19.3964 70.9028 19.586 70.7675 19.825C70.6323 20.0609 70.5631 20.3238 70.5598 20.6138V21.8136C70.5598 22.1769 70.6275 22.4908 70.7627 22.7553C70.9012 23.0198 71.096 23.2238 71.3472 23.3672C71.5983 23.5106 71.8962 23.5823 72.2407 23.5823C72.4694 23.5823 72.6787 23.5504 72.8687 23.4867C73.0586 23.4229 73.2213 23.3273 73.3565 23.1998C73.4918 23.0724 73.5948 22.9162 73.6656 22.7314L75.5687 22.8557C75.4721 23.3082 75.2741 23.7034 74.9746 24.0412C74.6784 24.3758 74.2952 24.6371 73.825 24.8251C73.3581 25.0099 72.8187 25.1024 72.2069 25.1024Z" fill="#F0F0F0"/>
<path d="M80.1417 24.959V15.1691H82.2331V23.2524H86.474V24.959H80.1417Z" fill="#F0F0F0"/>
<path d="M87.8204 24.959V17.6166H89.8781V24.959H87.8204ZM88.8541 16.6701C88.5482 16.6701 88.2857 16.5697 88.0668 16.369C87.851 16.165 87.7431 15.9212 87.7431 15.6376C87.7431 15.3572 87.851 15.1166 88.0668 14.9158C88.2857 14.7118 88.5482 14.6098 88.8541 14.6098C89.16 14.6098 89.4208 14.7118 89.6366 14.9158C89.8555 15.1166 89.965 15.3572 89.965 15.6376C89.965 15.9212 89.8555 16.165 89.6366 16.369C89.4208 16.5697 89.16 16.6701 88.8541 16.6701Z" fill="#F0F0F0"/>
<path d="M98.4432 17.6166L95.8494 24.959H93.5309L90.9371 17.6166H93.1107L94.6515 22.87H94.7288L96.2648 17.6166H98.4432Z" fill="#F0F0F0"/>
<path d="M102.638 25.1024C101.875 25.1024 101.218 24.9494 100.667 24.6435C100.12 24.3343 99.6982 23.8978 99.4019 23.3337C99.1057 22.7664 98.9576 22.0956 98.9576 21.3212C98.9576 20.566 99.1057 19.9031 99.4019 19.3327C99.6982 18.7622 100.115 18.3177 100.653 17.999C101.194 17.6803 101.828 17.521 102.556 17.521C103.045 17.521 103.501 17.5991 103.923 17.7552C104.348 17.9082 104.718 18.1392 105.034 18.4483C105.353 18.7575 105.601 19.1463 105.778 19.6147C105.955 20.08 106.043 20.6249 106.043 21.2495V21.8088H99.7787V20.5468H104.107C104.107 20.2537 104.042 19.9939 103.913 19.7677C103.785 19.5414 103.606 19.3645 103.377 19.2371C103.152 19.1064 102.889 19.0411 102.59 19.0411C102.278 19.0411 102.001 19.1128 101.759 19.2562C101.521 19.3964 101.334 19.586 101.199 19.825C101.064 20.0609 100.994 20.3238 100.991 20.6138V21.8136C100.991 22.1769 101.059 22.4908 101.194 22.7553C101.332 23.0198 101.527 23.2238 101.778 23.3672C102.03 23.5106 102.327 23.5823 102.672 23.5823C102.901 23.5823 103.11 23.5504 103.3 23.4867C103.49 23.4229 103.652 23.3273 103.788 23.1998C103.923 23.0724 104.026 22.9162 104.097 22.7314L106 22.8557C105.903 23.3082 105.705 23.7034 105.406 24.0412C105.11 24.3758 104.726 24.6371 104.256 24.8251C103.789 25.0099 103.25 25.1024 102.638 25.1024Z" fill="#F0F0F0"/>
<path d="M112.36 15.1691L114.751 22.6071H114.843L117.239 15.1691H119.557L116.147 24.959H113.452L110.037 15.1691H112.36Z" fill="#F0F0F0"/>
<path d="M123.253 25.1024C122.49 25.1024 121.833 24.9494 121.283 24.6435C120.735 24.3343 120.313 23.8978 120.017 23.3337C119.721 22.7664 119.573 22.0956 119.573 21.3212C119.573 20.566 119.721 19.9031 120.017 19.3327C120.313 18.7622 120.73 18.3177 121.268 17.999C121.809 17.6803 122.443 17.521 123.171 17.521C123.661 17.521 124.116 17.5991 124.538 17.7552C124.963 17.9082 125.333 18.1392 125.649 18.4483C125.968 18.7575 126.216 19.1463 126.393 19.6147C126.57 20.08 126.659 20.6249 126.659 21.2495V21.8088H120.394V20.5468H124.722C124.722 20.2537 124.657 19.9939 124.528 19.7677C124.4 19.5414 124.221 19.3645 123.992 19.2371C123.767 19.1064 123.504 19.0411 123.205 19.0411C122.893 19.0411 122.616 19.1128 122.374 19.2562C122.136 19.3964 121.949 19.586 121.814 19.825C121.679 20.0609 121.609 20.3238 121.606 20.6138V21.8136C121.606 22.1769 121.674 22.4908 121.809 22.7553C121.948 23.0198 122.142 23.2238 122.394 23.3672C122.645 23.5106 122.943 23.5823 123.287 23.5823C123.516 23.5823 123.725 23.5504 123.915 23.4867C124.105 23.4229 124.268 23.3273 124.403 23.1998C124.538 23.0724 124.641 22.9162 124.712 22.7314L126.615 22.8557C126.518 23.3082 126.32 23.7034 126.021 24.0412C125.725 24.3758 125.342 24.6371 124.871 24.8251C124.404 25.0099 123.865 25.1024 123.253 25.1024Z" fill="#F0F0F0"/>
<path d="M128.001 24.959V17.6166H129.996V18.8977H130.073C130.209 18.442 130.436 18.0978 130.755 17.8652C131.073 17.6293 131.44 17.5114 131.856 17.5114C131.959 17.5114 132.07 17.5178 132.189 17.5305C132.308 17.5433 132.413 17.5608 132.503 17.5831V19.39C132.406 19.3614 132.273 19.3359 132.102 19.3136C131.931 19.2912 131.775 19.2801 131.634 19.2801C131.331 19.2801 131.06 19.3454 130.822 19.4761C130.587 19.6036 130.4 19.782 130.262 20.0115C130.127 20.2409 130.059 20.5054 130.059 20.805V24.959H128.001Z" fill="#F0F0F0"/>
<path d="M139.74 19.7103L137.856 19.825C137.824 19.6657 137.755 19.5223 137.648 19.3948C137.542 19.2642 137.402 19.1606 137.228 19.0841C137.057 19.0044 136.853 18.9646 136.615 18.9646C136.296 18.9646 136.027 19.0315 135.808 19.1654C135.589 19.296 135.48 19.4713 135.48 19.6912C135.48 19.8665 135.55 20.0147 135.692 20.1357C135.834 20.2568 136.077 20.354 136.422 20.4273L137.764 20.695C138.486 20.8416 139.023 21.0774 139.378 21.4025C139.732 21.7276 139.909 22.1546 139.909 22.6836C139.909 23.1648 139.766 23.587 139.479 23.9503C139.196 24.3136 138.806 24.5973 138.31 24.8012C137.817 25.002 137.249 25.1024 136.605 25.1024C135.623 25.1024 134.84 24.9 134.258 24.4953C133.678 24.0874 133.338 23.5329 133.238 22.8318L135.262 22.7266C135.323 23.023 135.472 23.2492 135.707 23.4054C135.942 23.5584 136.243 23.6348 136.61 23.6348C136.971 23.6348 137.26 23.5663 137.479 23.4293C137.702 23.2891 137.814 23.109 137.817 22.8891C137.814 22.7043 137.735 22.5529 137.581 22.435C137.426 22.3139 137.188 22.2215 136.866 22.1578L135.581 21.9044C134.857 21.761 134.317 21.5124 133.963 21.1587C133.612 20.805 133.436 20.354 133.436 19.8059C133.436 19.3343 133.565 18.928 133.823 18.587C134.084 18.246 134.449 17.9831 134.919 17.7982C135.393 17.6134 135.947 17.521 136.581 17.521C137.518 17.521 138.255 17.717 138.793 18.1089C139.334 18.5009 139.65 19.0347 139.74 19.7103Z" fill="#F0F0F0"/>
<path d="M141.205 24.959V17.6166H143.262V24.959H141.205ZM142.238 16.6701C141.932 16.6701 141.67 16.5697 141.451 16.369C141.235 16.165 141.127 15.9212 141.127 15.6376C141.127 15.3572 141.235 15.1166 141.451 14.9158C141.67 14.7118 141.932 14.6098 142.238 14.6098C142.544 14.6098 142.805 14.7118 143.021 14.9158C143.24 15.1166 143.349 15.3572 143.349 15.6376C143.349 15.9212 143.24 16.165 143.021 16.369C142.805 16.5697 142.544 16.6701 142.238 16.6701Z" fill="#F0F0F0"/>
<path d="M148.263 25.1024C147.512 25.1024 146.864 24.9446 146.316 24.6291C145.772 24.3104 145.352 23.8675 145.055 23.3002C144.759 22.7298 144.611 22.0685 144.611 21.3165C144.611 20.558 144.759 19.8951 145.055 19.3279C145.352 18.7575 145.772 18.3145 146.316 17.999C146.864 17.6803 147.512 17.521 148.263 17.521C149.013 17.521 149.66 17.6803 150.204 17.999C150.752 18.3145 151.174 18.7575 151.47 19.3279C151.766 19.8951 151.914 20.558 151.914 21.3165C151.914 22.0685 151.766 22.7298 151.47 23.3002C151.174 23.8675 150.752 24.3104 150.204 24.6291C149.66 24.9446 149.013 25.1024 148.263 25.1024ZM148.272 23.5249C148.614 23.5249 148.899 23.4293 149.127 23.2381C149.356 23.0437 149.528 22.7792 149.644 22.4446C149.763 22.11 149.823 21.7291 149.823 21.3021C149.823 20.8751 149.763 20.4943 149.644 20.1597C149.528 19.825 149.356 19.5605 149.127 19.3661C148.899 19.1717 148.614 19.0745 148.272 19.0745C147.928 19.0745 147.638 19.1717 147.403 19.3661C147.171 19.5605 146.996 19.825 146.876 20.1597C146.76 20.4943 146.703 20.8751 146.703 21.3021C146.703 21.7291 146.76 22.11 146.876 22.4446C146.996 22.7792 147.171 23.0437 147.403 23.2381C147.638 23.4293 147.928 23.5249 148.272 23.5249Z" fill="#F0F0F0"/>
<path d="M155.31 20.7142V24.959H153.252V17.6166H155.213V18.912H155.3C155.464 18.485 155.74 18.1472 156.126 17.8986C156.513 17.6469 156.981 17.521 157.532 17.521C158.047 17.521 158.496 17.6325 158.879 17.8556C159.263 18.0787 159.56 18.3974 159.773 18.8116C159.985 19.2227 160.092 19.7135 160.092 20.2839V24.959H158.034V20.6472C158.037 20.1979 157.921 19.8473 157.686 19.5956C157.451 19.3406 157.128 19.2132 156.715 19.2132C156.439 19.2132 156.194 19.2721 155.981 19.39C155.772 19.508 155.608 19.68 155.489 19.9063C155.373 20.1294 155.313 20.3987 155.31 20.7142Z" fill="#F0F0F0"/>
<path d="M24.3945 17.019C23.0724 18.3273 20.929 18.3273 19.607 17.019C18.2849 15.7106 18.2849 13.5893 19.607 12.281C20.929 10.9726 23.0724 10.9726 24.3945 12.281C25.7165 13.5893 25.7165 15.7106 24.3945 17.019Z" fill="white"/>
<path d="M35.31 27.8216C33.988 29.13 31.8446 29.13 30.5225 27.8216C29.2005 26.5132 29.2005 24.392 30.5225 23.0836C31.8446 21.7753 33.988 21.7753 35.31 23.0836C36.6321 24.392 36.6321 26.5132 35.31 27.8216Z" fill="white"/>
<path d="M23.4849 12.7074L25.3856 14.5884C25.4 16.5072 26.1468 18.4215 27.6261 19.8855C29.1053 21.3494 31.0397 22.0885 32.9785 22.1028L34.8792 23.9838L31.5279 27.3004L29.5326 25.3258C29.4733 23.469 28.7278 21.6297 27.2957 20.2124C25.8636 18.7951 24.0051 18.0573 22.1289 17.9986L20.1336 16.024L23.4849 12.7074Z" fill="white"/>
<path d="M25.3596 25.4787C25.3596 27.329 23.844 28.829 21.9743 28.829C20.1047 28.829 18.589 27.329 18.589 25.4787C18.589 23.6284 20.1047 22.1285 21.9743 22.1285C23.844 22.1285 25.3596 23.6284 25.3596 25.4787Z" fill="white"/>
<path d="M36.328 14.6239C36.328 16.4742 34.8123 17.9741 32.9427 17.9741C31.073 17.9741 29.5574 16.4742 29.5574 14.6239C29.5574 12.7736 31.073 11.2736 32.9427 11.2736C34.8123 11.2736 36.328 12.7736 36.328 14.6239Z" fill="white"/>
<defs>
<linearGradient id="paint0_linear_441_490" x1="181" y1="6.85814e-06" x2="25.5859" y2="36.6831" gradientUnits="userSpaceOnUse">
<stop stop-color="#616775"/>
<stop offset="1"/>
</linearGradient>
</defs>
</svg>
